<?xml version="1.0" encoding="UTF-8"?>
<svg version="1.1" xmlns="http://www.w3.org/2000/svg" width="500" height="500">
<path d="M0 0 C165 0 330 0 500 0 C500 165 500 330 500 500 C335 500 170 500 0 500 C0 335 0 170 0 0 Z " fill="#000000" transform="translate(0,0)"/>
<path d="M0 0 C4.29 0 8.58 0 13 0 C13 7.26 13 14.52 13 22 C18.94 22 24.88 22 31 22 C31 14.74 31 7.48 31 0 C35.29 0 39.58 0 44 0 C44.495 20.295 44.495 20.295 45 41 C46.14339844 38.12410156 47.28679687 35.24820313 48.46484375 32.28515625 C49.56961088 29.51155238 50.67526443 26.73830346 51.78100586 23.96508789 C52.55114114 22.03218977 53.32034913 20.09892192 54.08862305 18.1652832 C55.19077965 15.39177112 56.296225 12.61959013 57.40234375 9.84765625 C57.74716293 8.97786636 58.09198212 8.10807648 58.44725037 7.21192932 C58.92763512 6.0107975 58.92763512 6.0107975 59.41772461 4.78540039 C59.84075111 3.72283775 59.84075111 3.72283775 60.27232361 2.6388092 C61 1 61 1 62 0 C64.18639453 -0.07258946 66.37500389 -0.08373783 68.5625 -0.0625 C70.35880859 -0.04896484 70.35880859 -0.04896484 72.19140625 -0.03515625 C73.11824219 -0.02355469 74.04507813 -0.01195312 75 0 C77.26143698 5.64124215 79.52174586 11.28293446 81.78100586 16.92504883 C82.5499006 18.84476977 83.31910465 20.76436686 84.08862305 22.68383789 C85.19400883 25.44124446 86.29828518 28.19909305 87.40234375 30.95703125 C87.74716293 31.81649857 88.09198212 32.67596588 88.44725037 33.56147766 C88.76750687 34.36208115 89.08776337 35.16268463 89.41772461 35.98754883 C89.69974228 36.6914827 89.98175995 37.39541656 90.27232361 38.12068176 C90.89532548 39.72966454 91.45438503 41.3631551 92 43 C92.33 28.81 92.66 14.62 93 0 C97.29 0 101.58 0 106 0 C106.495 8.91 106.495 8.91 107 18 C107.66 12.06 108.32 6.12 109 0 C113.62 0 118.24 0 123 0 C126.2370701 6.18251226 128.81584871 12.46385301 131.25 19 C131.61351562 19.96550781 131.97703125 20.93101562 132.3515625 21.92578125 C133.23822626 24.28244018 134.12094372 26.64049524 135 29 C137.45577587 26.54422413 138.12823766 24.40453387 139.34765625 21.15234375 C139.78787109 19.99025391 140.22808594 18.82816406 140.68164062 17.63085938 C141.13732422 16.41205078 141.59300781 15.19324219 142.0625 13.9375 C142.96772378 11.52907152 143.8751545 9.12147098 144.78515625 6.71484375 C145.18613525 5.64355225 145.58711426 4.57226074 146.00024414 3.46850586 C147 1 147 1 148 0 C150.35313555 -0.07271741 152.70833668 -0.08370868 155.0625 -0.0625 C156.35285156 -0.05347656 157.64320313 -0.04445312 158.97265625 -0.03515625 C159.97167969 -0.02355469 160.97070312 -0.01195312 162 0 C162.31860451 2.49934409 162.6298227 4.99930368 162.9375 7.5 C163.02451172 8.17675781 163.11152344 8.85351562 163.20117188 9.55078125 C164.15300941 17.37700099 164.50495182 25.07922912 165 33 C165.33 22.11 165.66 11.22 166 0 C169.96 0 173.92 0 178 0 C178 18.48 178 36.96 178 56 C170.08 56 162.16 56 154 56 C151.6309795 32.90205011 151.6309795 32.90205011 152 23 C151.34 23 150.68 23 150 23 C149.75378906 24.2375 149.50757813 25.475 149.25390625 26.75 C147.9394782 32.6608729 145.95708513 38.2989171 143.9375 44 C143.57333984 45.04800781 143.20917969 46.09601563 142.83398438 47.17578125 C140.1369646 54.8630354 140.1369646 54.8630354 139 56 C136.66702567 56.04092937 134.33294775 56.04241723 132 56 C127.84176859 46.18554078 124.47677601 36.06975178 121 26 C119.6969229 31.96704213 118.73776042 37.71146385 118.4375 43.8125 C118.22182035 48.06006852 117.83866789 51.80666056 117 56 C105.78 56 94.56 56 83 56 C81.68 52.7 80.36 49.4 79 46 C68.11 45.505 68.11 45.505 57 45 C56.01 48.63 55.02 52.26 54 56 C46.41 56 38.82 56 31 56 C31 48.41 31 40.82 31 33 C25.06 33 19.12 33 13 33 C13 40.59 13 48.18 13 56 C8.71 56 4.42 56 0 56 C0 37.52 0 19.04 0 0 Z " fill="#FBFBFB" transform="translate(206,209)"/>
<path d="M0 0 C18.81 0 37.62 0 57 0 C57.3125 18.6875 57.3125 18.6875 57.38793945 24.5612793 C57.42024166 26.10728346 57.45361712 27.65326574 57.48828125 29.19921875 C57.49452515 29.9941272 57.50076904 30.78903564 57.50720215 31.60803223 C57.62557781 36.18450705 58.00985123 39.29704348 61 43 C63.16415295 43.67584027 63.16415295 43.67584027 65.5 43.4375 C66.2734375 43.41558594 67.046875 43.39367187 67.84375 43.37109375 C70.28880472 43.10035433 70.28880472 43.10035433 73 41 C74.28774446 37.13676662 74.23382793 33.42509463 74.31640625 29.39453125 C74.3475779 28.13572395 74.3475779 28.13572395 74.37937927 26.85148621 C74.44474018 24.17190706 74.50369714 21.49223031 74.5625 18.8125 C74.60569802 16.99543263 74.64931273 15.17837512 74.69335938 13.36132812 C74.8004078 8.90765201 74.90171319 4.45387774 75 0 C79.29 0 83.58 0 88 0 C88.07451939 5.69251691 88.12877612 11.38474575 88.16479492 17.07763672 C88.17982075 19.01160635 88.20024726 20.94554226 88.22631836 22.87939453 C88.26297591 25.66968136 88.27978868 28.45951511 88.29296875 31.25 C88.30845261 32.10553467 88.32393646 32.96106934 88.33988953 33.8425293 C88.34163955 40.17744825 87.49032559 45.94315485 83.3515625 51.0234375 C82.49691406 51.69246094 82.49691406 51.69246094 81.625 52.375 C81.06039062 52.83648437 80.49578125 53.29796875 79.9140625 53.7734375 C73.15512708 58.10467367 65.72778642 57.66449119 58 57 C52.59870992 55.50859901 48.97282112 52.80224951 46 48 C43.95973295 43.02760155 43.66441285 38.60826453 43.5859375 33.3203125 C43.56657135 32.50754852 43.5472052 31.69478455 43.5272522 30.85739136 C43.46782117 28.28003188 43.42121819 25.70262685 43.375 23.125 C43.33678657 21.36977298 43.29773291 19.61456403 43.2578125 17.859375 C43.16215001 13.57306476 43.07798551 9.28666681 43 5 C42.6282666 5.61294922 42.2565332 6.22589844 41.87353516 6.85742188 C34.3296898 19.29023696 26.73914865 31.68771805 19 44 C27.25 44.33 35.5 44.66 44 45 C44 48.63 44 52.26 44 56 C28.16 56 12.32 56 -4 56 C-0.64188668 49.28377335 2.69775777 43.0617967 6.75 36.8125 C7.80347248 35.16755549 8.85553756 33.52170886 9.90625 31.875 C10.42445312 31.06289062 10.94265625 30.25078125 11.4765625 29.4140625 C15.09689802 23.67722313 18.53555695 17.83181247 22 12 C14.74 11.67 7.48 11.34 0 11 C0 7.37 0 3.74 0 0 Z " fill="#FBFBFB" transform="translate(117,209)"/>
<path d="M0 0 C0.33 0 0.66 0 1 0 C1.02505615 1.12494873 1.0501123 2.24989746 1.07592773 3.40893555 C1.17028435 7.5929655 1.27043553 11.77684036 1.37231445 15.96069336 C1.4155566 17.76957565 1.45723904 19.57849595 1.49731445 21.38745117 C1.5552774 23.99149005 1.61889613 26.59533955 1.68359375 29.19921875 C1.70030624 30.00461594 1.71701874 30.81001312 1.73423767 31.63981628 C1.83655581 35.54069215 2.06157749 39.18953707 3 43 C2.34 42.67 1.68 42.34 1 42 C-0.95774069 41.84621148 -2.92017352 41.75028537 -4.8828125 41.68359375 C-6.63271484 41.62075195 -6.63271484 41.62075195 -8.41796875 41.55664062 C-10.25294922 41.49766602 -10.25294922 41.49766602 -12.125 41.4375 C-13.35605469 41.39431641 -14.58710938 41.35113281 -15.85546875 41.30664062 C-18.90352853 41.20031296 -21.9516719 41.09828219 -25 41 C-20.77528111 33.01767115 -16.19384752 25.32374144 -11.375 17.6875 C-10.72015625 16.64271484 -10.0653125 15.59792969 -9.390625 14.52148438 C-2.45314505 3.47628604 -2.45314505 3.47628604 0 0 Z " fill="#070707" transform="translate(160,213)"/>
<path d="M0 0 C4.03809068 4.61496078 6 9.92852877 6 16 C2.04 16 -1.92 16 -6 16 C-4.3967597 10.35048657 -2.85403778 5.16444932 0 0 Z " fill="#1B1B1B" transform="translate(274,227)"/>
</svg>
